HIERARCHY
ROOT Hips
{
  OFFSET -125.086 92.215 135.881
  CHANNELS 6 Xposition Yposition Zposition Zrotation Xrotation Yrotation
  JOINT LeftUpLeg
  {
    OFFSET 8.64259 1.95398 -2.38835
    CHANNELS 3 Zrotation Xrotation Yrotation
    JOINT LeftLeg
    {
      OFFSET 43.7702 0 0
      CHANNELS 3 Zrotation Xrotation Yrotation
      JOINT LeftFoot
      {
        OFFSET 40.6238 0 0
        CHANNELS 3 Zrotation Xrotation Yrotation
        JOINT LeftToeBase
        {
          OFFSET 12.7242 0 0
          CHANNELS 3 Zrotation Xrotation Yrotation
          End Site
          {
            OFFSET 0 0 0
          }
        }
      }
    }
  }
  JOINT RightUpLeg
  {
    OFFSET -8.2249 1.95398 -2.59336
    CHANNELS 3 Zrotation Xrotation Yrotation
    JOINT RightLeg
    {
      OFFSET 43.5653 0 0
      CHANNELS 3 Zrotation Xrotation Yrotation
      JOINT RightFoot
      {
        OFFSET 40.6238 0 0
        CHANNELS 3 Zrotation Xrotation Yrotation
        JOINT RightToeBase
        {
          OFFSET 12.7242 0 0
          CHANNELS 3 Zrotation Xrotation Yrotation
          End Site
          {
            OFFSET 0 0 0
          }
        }
      }
    }
  }
  JOINT Spine
  {
    OFFSET 0.165834 0.87714 6.61349
    CHANNELS 3 Zrotation Xrotation Yrotation
    JOINT Spine1
    {
      OFFSET 7.38963 1.71661e-005 0
      CHANNELS 3 Zrotation Xrotation Yrotation
      JOINT Spine2
      {
        OFFSET 11.9445 1.14441e-005 0
        CHANNELS 3 Zrotation Xrotation Yrotation
        JOINT Spine3
        {
          OFFSET 14.7254 4.19617e-005 0
          CHANNELS 3 Zrotation Xrotation Yrotation
          JOINT Spine4
          {
            OFFSET 10.9679 0 0
            CHANNELS 3 Zrotation Xrotation Yrotation
            JOINT RightShoulder
            {
              OFFSET 2.46616 -1.6653 3.69651
              CHANNELS 3 Zrotation Xrotation Yrotation
              JOINT RightArm
              {
                OFFSET 13.0012 0 0
                CHANNELS 3 Zrotation Xrotation Yrotation
                JOINT RightForeArm
                {
                  OFFSET 28.7848 1.52588e-005 0
                  CHANNELS 3 Zrotation Xrotation Yrotation
                  JOINT RightHand
                  {
                    OFFSET 26.5688 1.52588e-005 0
                    CHANNELS 3 Zrotation Xrotation Yrotation
                    End Site
                    {
                      OFFSET 0 0 0
                    }
                  }
                }
              }
            }
            JOINT LeftShoulder
            {
              OFFSET 2.38034 -1.29275 -3.7523
              CHANNELS 3 Zrotation Xrotation Yrotation
              JOINT LeftArm
              {
                OFFSET 16.3182 6.10352e-005 0
                CHANNELS 3 Zrotation Xrotation Yrotation
                JOINT LeftForeArm
                {
                  OFFSET 27.0901 0 0
                  CHANNELS 3 Zrotation Xrotation Yrotation
                  JOINT LeftHand
                  {
                    OFFSET 24.5451 1.52588e-005 0
                    CHANNELS 3 Zrotation Xrotation Yrotation
                    End Site
                    {
                      OFFSET 0 0 0
                    }
                  }
                }
              }
            }
            JOINT Neck
            {
              OFFSET 5.0226 -0.0266342 0
              CHANNELS 3 Zrotation Xrotation Yrotation
              JOINT Head
              {
                OFFSET 6.69363 2.86102e-005 0
                CHANNELS 3 Zrotation Xrotation Yrotation
                End Site
                {
                  OFFSET 0 0 0
                }
              }
            }
          }
        }
      }
    }
  }
}
MOTION
Frames:	14
Frame Time:	0.0416667
94.981 81.4843 96.3637 -70.224 25.1983 -109.37 -179.016 20.9358 84.6363 -57.5277 28.7302 4.2261 71.6715 15.1109 17.2211 73.096 0.52659 15.5418 -158.727 68.3659 69.4052 -131.89 -15.8988 -3.71582 48.2691 3.54518 9.27567 42.7349 -2.04244 -7.79532 -1.189 9.89641 -89.6238 7.08162 -2.21282 0.855572 -4.58798 -2.17303 0.952172 -27.1368 -2.36772 0.150617 -7.12413 -2.36771 0.15063 108.814 -49.9639 -71.798 29.0712 -8.79904 27.787 -8.05885 -10.5131 -51.7224 -10.3267 -0.280244 -2.45136 -81.6904 -33.1485 89.5978 -18.4102 -10.0093 -66.7177 6.85579 1.50064 -68.8727 8.89203 -1.24879 -16.0761 14.2903 -2.2422 -2.21877 -4.09432 -1.60156 6.71501 
81.2549 85.7491 85.9413 -71.4841 24.9614 -96.795 -179.864 5.10866 96.9258 -44.8433 29.464 13.2539 56.0834 2.04679 1.99476 81.0028 -0.834545 10.5176 159.309 71.7285 105.55 -101.091 -9.60732 -2.81474 58.4639 -1.37827 7.57039 65.6798 -7.4495 -6.98719 -1.19885 10.1479 -91.3206 6.53877 -2.95627 -2.49126 -5.13095 -3.06304 -2.35874 -27.662 -2.07132 -3.26417 -7.64941 -2.07131 -3.26415 103.122 -45.0705 -80.5731 35.1817 -5.64058 45.0367 6.01856 3.37648 -55.3576 -10.2349 -0.0514874 -4.8048 -80.6505 -33.0676 91.5356 -19.5328 -8.18591 -55.8543 14.6789 2.19456 -83.084 10.5051 -1.42469 -16.1511 16.2438 -0.560031 -6.39461 -7.99977 0.634625 16.4475 
66.9477 88.8654 73.5887 -72.442 35.1445 -100.942 -177.731 -0.205224 90.4197 -49.2461 20.9954 7.31169 36.6013 -8.57457 -4.50062 56.9318 -1.86151 4.72189 166.483 58.0703 96.0687 -68.4795 -15.7425 2.74947 55.2169 0.897715 7.44042 79.8857 -6.71932 3.96851 -0.654033 10.5558 -90.7617 5.74733 -1.62503 -1.45848 -5.92327 -1.68767 -1.38555 -28.4566 -1.11165 -1.87937 -8.44395 -1.11165 -1.87936 103.877 -48.644 -79.4554 29.5481 -11.3835 25.9942 15.2937 10.1885 -50.7789 -12.4744 0.220389 -7.55922 -80.6511 -38.5713 91.9391 -14.3484 5.27413 -40.8746 8.2672 13.3511 -54.6543 2.50008 -0.472913 -13.6287 17.2847 -0.816544 -13.2109 -9.46226 1.82084 24.5983 
52.5213 87.913 61.5773 -71.6502 41.4164 -100.975 -176.752 18.1695 88.8444 -87.1932 9.18839 3.68194 43.9605 -3.19125 8.82268 56.5511 -1.7711 4.60789 163.283 40.1938 96.4041 -59.8416 -16.5493 8.03926 59.085 -1.03397 3.85132 66.432 -5.75537 1.5943 -0.164813 10.5706 -90.8071 5.72407 -0.666457 -1.56796 -5.94765 -0.734815 -1.53713 -28.4745 -0.164501 -1.69571 -8.4619 -0.164497 -1.69572 107.288 -52.5602 -74.4296 19.8022 -15.1854 -7.13225 16.5936 10.2069 -50.1457 -9.88762 0.200146 -7.89224 -79.6069 -47.2014 94.0596 -22.2036 -2.52266 -32.4011 2.15168 53.4468 -11.9747 4.29359 -0.657034 -14.0751 23.6357 0.0353779 -10.9971 -16.3735 1.37406 22.1728 
39.5714 86.0437 49.9934 -67.6584 55.0053 -98.1245 -173.568 44.651 89.6418 -111.278 5.59423 3.67117 52.0108 4.19203 15.8214 54.7027 -1.50546 6.37301 171.231 25.2976 97.7748 -57.0144 -19.5681 5.39046 67.4637 -3.08226 10.7453 64.4552 -4.13587 6.47462 1.04368 10.2391 -90.9186 6.40245 1.69541 -1.86702 -5.26895 1.61161 -1.93983 -27.8063 2.17805 -1.2712 -7.79366 2.17806 -1.2712 105.425 -48.2773 -76.9896 20.6851 -15.3194 -38.4012 8.22541 2.68218 -61.5758 -8.71373 0.167615 -7.85891 -77.2019 -50.6022 97.8846 -14.1972 -10.6599 -4.84185 -9.52075 65.1322 1.33823 5.10686 -0.582702 -11.829 21.4941 1.13226 -14.5746 -16.7039 2.9676 25.6393 
26.1554 86.2438 36.4946 -62.8756 57.987 -106.364 -176.3 64.9126 86.5733 -99.0526 3.03823 3.46625 57.1278 6.86831 18.6596 59.5015 -1.27159 8.74113 175.433 7.47688 90.9522 -40.7749 -19.8432 -0.155225 67.1019 -2.13277 15.3499 69.4049 -4.9023 5.6006 1.72541 9.71888 -90.1993 7.44507 3.35907 -0.556878 -4.22174 3.33128 -0.704339 -26.7915 3.37095 0.479583 -6.77884 3.37094 0.479573 103.711 -36.9126 -79.2828 21.7069 -11.6642 -52.7554 -3.47552 0.502544 -82.4847 -7.12911 0.164734 -8.46923 -82.7025 -40.6961 88.5787 -14.2085 -5.88453 18.6668 -11.1153 58.6981 -3.26944 3.19954 -0.545252 -13.6936 12.7653 -0.992115 -13.3141 -10.5687 1.16504 20.1426 
11.3559 88.2851 21.258 -68.408 50.869 -102.788 -172.82 63.1474 81.7486 -69.9911 8.21091 0.316666 57.9056 4.58991 13.156 65.741 -0.979558 10.4642 177.611 -9.43885 91.5037 -24.1886 -14.5985 -2.579 26.4623 8.55116 31.6706 59.869 -2.26174 9.63584 1.28761 9.65673 -90.0656 7.57287 2.54258 -0.262384 -4.0957 2.52856 -0.374113 -26.6505 2.50389 0.51438 -6.63785 2.50389 0.514379 104.81 -37.5086 -77.2642 13.2427 -17.7229 -45.0888 -8.53109 1.88915 -91.6545 -5.82453 0.225915 -10.599 -84.0763 -38.94 85.9809 -17.8544 -3.74296 11.6427 -8.5875 43.5125 -6.15632 4.43349 -0.670098 -14.127 5.22116 -2.26778 -16.2279 -5.54549 0.479779 19.8362 
-3.77624 88.0133 5.47326 -77.1364 44.1002 -93.8975 -165.299 46.5414 80.2196 -61.3664 15.5978 -4.60055 58.0867 4.35732 16.2899 62.0854 -1.27994 7.78639 176.545 0.980446 89.4869 -70.9222 -23.0239 -2.28969 30.4016 10.7449 17.6343 18.3083 1.48099 -0.544934 0.493726 10.145 -90.3322 6.58668 0.844029 -0.671299 -5.08401 0.813671 -0.707797 -27.6219 1.00673 -0.386581 -7.60921 1.00672 -0.386585 106.05 -46.7175 -75.8449 10.8846 -24.4612 -28.8559 -8.65173 1.46408 -71.0377 -5.92432 0.153451 -9.33101 -80.7646 -45.3666 92.1528 -14.4426 4.29669 -14.054 -6.35277 24.68 -20.2613 5.80101 -0.771432 -13.8296 7.36128 -2.30185 -21.7571 -6.93985 1.52655 22.9338 
-18.392 85.5903 -10.227 -82.2686 33.3202 -96.7678 -168.994 23.6112 77.3667 -58.0695 21.812 -4.57891 68.2707 15.4669 26.9331 58.584 -1.28151 8.50085 172.395 28.974 90.6511 -110.533 -16.5418 -3.68861 36.7648 7.83617 7.89305 27.8664 1.44843 -12.8794 -0.538282 10.086 -89.6999 6.70039 -0.946693 0.621186 -4.97044 -0.918439 0.662251 -27.5072 -1.0896 0.307929 -7.49455 -1.08958 0.307938 110.627 -53.9434 -69.6241 19.2033 -16.3643 -3.0841 -7.56977 -12.5593 -51.1893 -9.468 -0.013696 -5.29181 -79.6426 -45.7902 93.9965 -11.7522 8.74246 -43.0557 -4.28429 13.3165 -38.2005 6.74434 -0.961713 -15.2656 10.8555 -2.77671 -12.6245 -10.6303 -0.2684 9.66416 
-33.5072 84.8188 -25.9888 -80.5672 21.1852 -96.8011 -176.377 9.08444 83.9896 -52.8824 26.7128 2.5112 70.0407 15.1277 21.7433 67.7481 -0.546764 12.2203 179.417 58.9754 80.6083 -112.512 -11.9529 -3.88548 43.4475 4.81747 13.3944 48.3739 -3.83625 -10.0863 -1.45071 9.54497 -90.1267 7.78361 -2.9514 -0.0930644 -3.88399 -2.95262 0.0370378 -26.4438 -2.78684 -0.976459 -6.4312 -2.78686 -0.976467 109.463 -51.2439 -70.9732 28.5597 -8.52408 34.0494 -8.94444 -6.57829 -59.7374 -8.02752 -0.0220789 -5.17377 -81.5313 -39.7178 90.4887 -15.3022 6.48094 -64.5223 4.53116 6.83889 -64.1046 7.23926 -1.03233 -15.5369 13.5259 -2.94685 -5.02594 -13.2254 -1.69725 1.37476 
-52.7017 88.147 -42.7605 -78.7663 27.9563 -89.3447 -173.754 -7.33981 96.8955 -37.8942 23.2168 9.25639 47.7521 -4.00784 -2.65208 73.4528 -2.94535 3.38165 171.402 64.1961 94.0979 -75.2116 -17.0673 -0.549305 48.628 3.32533 4.58307 68.7577 -6.18782 0.336215 -1.27928 9.2729 -90.8781 8.30363 -2.93952 -1.55929 -3.36478 -3.00528 -1.42834 -25.9106 -2.33509 -2.37077 -5.89797 -2.33509 -2.37078 102.687 -44.4652 -81.2663 37.6353 -7.89497 51.9903 1.12859 1.44648 -63.4196 -8.89565 0.163457 -7.73673 -79.9119 -35.9565 93.0646 -19.3943 -2.07393 -58.8591 10.7287 1.61042 -84.4063 8.90986 -1.2087 -15.7497 9.44954 0.0448833 -11.4121 -14.0766 1.52581 11.5687 
-72.0787 88.5517 -59.5649 -83.973 35.6424 -90.5272 -176.657 -14.4745 88.8386 -58.1507 17.7301 7.37388 39.6817 -7.4359 -3.7629 59.0172 -1.66699 5.92759 166.54 51.1439 93.5602 -41.6489 -14.7619 6.59915 41.2864 7.32021 14.3118 81.3647 -7.3316 3.4842 -1.0705 9.61904 -90.5462 7.62384 -2.37443 -0.958017 -4.04535 -2.41431 -0.852557 -26.5897 -1.97679 -1.62748 -6.57708 -1.97679 -1.62748 102.905 -46.3177 -80.9694 33.9468 -8.05181 41.1704 10.3851 6.76145 -64.1115 -8.6887 0.264549 -9.2713 -78.4639 -39.4646 95.7949 -14.1087 -0.00422905 -40.5045 9.64368 5.10663 -73.0244 8.06588 -0.929891 -13.4441 9.4372 1.28977 -10.6515 -16.2212 1.97109 14.9806 
-89.8115 86.8052 -75.733 -86.8625 40.7362 -86.8438 -172.52 2.79833 90.5595 -102.856 4.35867 4.14775 41.8739 -3.19015 1.90886 58.597 -1.77037 5.27451 160.299 40.0643 97.84 -51.2098 -17.4398 11.789 57.8822 -0.949561 3.98499 42.8132 -2.24927 -2.02418 -0.414052 9.52163 -90.9128 7.8188 -1.22459 -1.73821 -3.85261 -1.29992 -1.68265 -26.3806 -0.645687 -2.02578 -6.36792 -0.645686 -2.02579 109.207 -53.1419 -71.6247 23.7824 -9.60505 11.9003 9.42659 5.73224 -59.6304 -7.76591 0.193747 -8.61052 -77.6254 -46.1134 97.204 -13.1983 3.60378 -27.7299 7.4132 25.7492 -39.8608 4.19619 -0.621293 -13.6205 12.0223 1.42442 -9.19343 -17.5969 1.80641 15.0839 
-107.517 85.1731 -91.9736 -85.0455 50.6717 -80.6205 -175.68 33.2144 95.5446 -125.366 4.92706 3.55343 43.7509 -0.673437 7.22782 54.3105 -1.61392 5.17076 168.415 28.3634 104.551 -61.1267 -18.5584 8.22241 70.8023 -7.74718 0.109779 51.4415 -3.84488 -3.03593 0.522984 8.96134 -91.6185 8.94462 0.322008 -3.22607 -2.73033 0.179789 -3.2371 -25.2373 1.27627 -2.98055 -5.22472 1.27626 -2.98056 109.488 -52.5929 -71.1198 19.7976 -17.4816 -16.5211 6.99425 3.08585 -62.5807 -7.85701 0.181859 -8.39994 -75.6986 -49.582 100.149 -15.5988 -2.99903 -10.3527 -2.69412 50.8302 -12.4419 2.00661 -0.449054 -13.7267 16.9078 2.269 -13.04 -21.9834 2.71128 20.175 
